<svg xmlns="http://www.w3.org/2000/svg" style="display:none">
  <symbol id="i-search" viewBox="0 0 24 24"><circle cx="11" cy="11" r="7"/><path d="M21 21l-4.3-4.3" fill="none" stroke="currentColor" stroke-width="1.8" stroke-linecap="round"/></symbol>
  <symbol id="i-heart" viewBox="0 0 24 24"><path d="M12 21C7 16.6 3 13 3 8.7A4.9 4.9 0 0 1 12 5.6 4.9 4.9 0 0 1 21 8.7C21 13 17 16.6 12 21z" fill="none" stroke="currentColor" stroke-width="1.8" stroke-linejoin="round"/></symbol>
  <symbol id="i-heart-filled" viewBox="0 0 24 24"><path d="M12 21C7 16.6 3 13 3 8.7A4.9 4.9 0 0 1 12 5.6 4.9 4.9 0 0 1 21 8.7C21 13 17 16.6 12 21z" fill="currentColor"/></symbol>
  <symbol id="i-star" viewBox="0 0 24 24"><path d="M12 2.6l2.9 5.9 6.5.9-4.7 4.6 1.1 6.5L12 17.5l-5.8 3 1.1-6.5L2.6 9.4l6.5-.9z" fill="currentColor"/></symbol>
  <symbol id="i-star-half" viewBox="0 0 24 24"><path d="M12 2.6l2.9 5.9 6.5.9-4.7 4.6 1.1 6.5L12 17.5l-5.8 3 1.1-6.5L2.6 9.4l6.5-.9z" fill="currentColor" opacity="0.35"/></symbol>
  <symbol id="i-share" viewBox="0 0 24 24"><circle cx="6" cy="12" r="2.5" fill="none" stroke="currentColor" stroke-width="1.8"/><circle cx="18" cy="6" r="2.5" fill="none" stroke="currentColor" stroke-width="1.8"/><circle cx="18" cy="18" r="2.5" fill="none" stroke="currentColor" stroke-width="1.8"/><path d="M8.3 10.8l7.4-3.6M8.3 13.2l7.4 3.6" fill="none" stroke="currentColor" stroke-width="1.8"/></symbol>
  <symbol id="i-link" viewBox="0 0 24 24"><path d="M10 14a5 5 0 0 0 7.1 0l2-2a5 5 0 0 0-7-7l-1.1 1" fill="none" stroke="currentColor" stroke-width="1.8" stroke-linecap="round"/><path d="M14 10a5 5 0 0 0-7.1 0l-2 2a5 5 0 0 0 7 7l1.1-1" fill="none" stroke="currentColor" stroke-width="1.8" stroke-linecap="round"/></symbol>
  <symbol id="i-copy" viewBox="0 0 24 24"><rect x="9" y="9" width="11" height="11" rx="2" fill="none" stroke="currentColor" stroke-width="1.8"/><path d="M5 15H4a2 2 0 0 1-2-2V4a2 2 0 0 1 2-2h9a2 2 0 0 1 2 2v1" fill="none" stroke="currentColor" stroke-width="1.8"/></symbol>
  <symbol id="i-check" viewBox="0 0 24 24"><path d="M4 12.5l5 5L20 6.5" fill="none" stroke="currentColor" stroke-width="2.2" stroke-linecap="round" stroke-linejoin="round"/></symbol>
  <symbol id="i-arrow-right" viewBox="0 0 24 24"><path d="M4 12h16M13 5l7 7-7 7" fill="none" stroke="currentColor" stroke-width="1.8" stroke-linecap="round" stroke-linejoin="round"/></symbol>
  <symbol id="i-arrow-left" viewBox="0 0 24 24"><path d="M20 12H4M11 5l-7 7 7 7" fill="none" stroke="currentColor" stroke-width="1.8" stroke-linecap="round" stroke-linejoin="round"/></symbol>
  <symbol id="i-arrow-up" viewBox="0 0 24 24"><path d="M12 20V4M5 11l7-7 7 7" fill="none" stroke="currentColor" stroke-width="1.8" stroke-linecap="round" stroke-linejoin="round"/></symbol>
  <symbol id="i-chevron-down" viewBox="0 0 24 24"><path d="M6 9l6 6 6-6" fill="none" stroke="currentColor" stroke-width="1.8" stroke-linecap="round" stroke-linejoin="round"/></symbol>
  <symbol id="i-chevron-left" viewBox="0 0 24 24"><path d="M15 5l-7 7 7 7" fill="none" stroke="currentColor" stroke-width="1.8" stroke-linecap="round" stroke-linejoin="round"/></symbol>
  <symbol id="i-chevron-right" viewBox="0 0 24 24"><path d="M9 5l7 7-7 7" fill="none" stroke="currentColor" stroke-width="1.8" stroke-linecap="round" stroke-linejoin="round"/></symbol>
  <symbol id="i-close" viewBox="0 0 24 24"><path d="M5 5l14 14M19 5L5 19" fill="none" stroke="currentColor" stroke-width="1.8" stroke-linecap="round"/></symbol>
  <symbol id="i-menu" viewBox="0 0 24 24"><path d="M3 6h18M3 12h18M3 18h18" fill="none" stroke="currentColor" stroke-width="1.8" stroke-linecap="round"/></symbol>
  <symbol id="i-sun" viewBox="0 0 24 24"><circle cx="12" cy="12" r="4" fill="none" stroke="currentColor" stroke-width="1.8"/><path d="M12 2v2M12 20v2M4.9 4.9l1.4 1.4M17.7 17.7l1.4 1.4M2 12h2M20 12h2M4.9 19.1l1.4-1.4M17.7 6.3l1.4-1.4" fill="none" stroke="currentColor" stroke-width="1.8" stroke-linecap="round"/></symbol>
  <symbol id="i-moon" viewBox="0 0 24 24"><path d="M21 12.8A9 9 0 1 1 11.2 3a7 7 0 0 0 9.8 9.8z" fill="none" stroke="currentColor" stroke-width="1.8" stroke-linejoin="round"/></symbol>
  <symbol id="i-filter" viewBox="0 0 24 24"><path d="M3 5h18M6 12h12M10 19h4" fill="none" stroke="currentColor" stroke-width="1.8" stroke-linecap="round"/></symbol>
  <symbol id="i-sort" viewBox="0 0 24 24"><path d="M4 6h16M4 12h10M4 18h6" fill="none" stroke="currentColor" stroke-width="1.8" stroke-linecap="round"/><path d="M19 4l3 3M19 20l3-3" fill="none" stroke="currentColor" stroke-width="1.6" stroke-linecap="round" opacity="0.6"/></symbol>
  <symbol id="i-download" viewBox="0 0 24 24"><path d="M12 3v12M7 10l5 5 5-5M4 21h16" fill="none" stroke="currentColor" stroke-width="1.8" stroke-linecap="round" stroke-linejoin="round"/></symbol>
  <symbol id="i-github" viewBox="0 0 24 24"><path d="M12 2a10 10 0 0 0-3.2 19.5c.5.1.7-.2.7-.5v-1.7c-2.8.6-3.4-1.2-3.4-1.2-.4-1.1-1.1-1.5-1.1-1.5-.9-.6.1-.6.1-.6 1 .1 1.5 1 1.5 1 .9 1.6 2.4 1.1 3 .9.1-.7.4-1.1.6-1.4-2.2-.3-4.6-1.1-4.6-5A3.9 3.9 0 0 1 5.7 8.7c-.1-.3-.5-1.4.1-2.9 0 0 .9-.3 2.9 1.1a10 10 0 0 1 5.3 0c2-1.4 2.9-1.1 2.9-1.1.6 1.5.2 2.6.1 2.9a3.9 3.9 0 0 1 1 2.7c0 3.9-2.4 4.7-4.6 5 .4.3.7.9.7 1.9v2.8c0 .3.2.6.7.5A10 10 0 0 0 12 2z" fill="currentColor"/></symbol>
  <symbol id="i-external" viewBox="0 0 24 24"><path d="M14 4h6v6M20 4l-9 9M18 13v5a2 2 0 0 1-2 2H6a2 2 0 0 1-2-2V8a2 2 0 0 1 2-2h5" fill="none" stroke="currentColor" stroke-width="1.8" stroke-linecap="round" stroke-linejoin="round"/></symbol>
  <symbol id="i-clock" viewBox="0 0 24 24"><circle cx="12" cy="12" r="9" fill="none" stroke="currentColor" stroke-width="1.8"/><path d="M12 7v5l3 2" fill="none" stroke="currentColor" stroke-width="1.8" stroke-linecap="round"/></symbol>
  <symbol id="i-tag" viewBox="0 0 24 24"><path d="M20.6 13.4 13.4 20.6a2 2 0 0 1-2.8 0l-7.2-7.2A2 2 0 0 1 2.8 12V4a1 1 0 0 1 1-1h8a2 2 0 0 1 1.4.6l7.4 7.4a2 2 0 0 1 0 2.4z" fill="none" stroke="currentColor" stroke-width="1.8" stroke-linejoin="round"/><circle cx="7.5" cy="7.5" r="1.2" fill="currentColor"/></symbol>
  <symbol id="i-bookmark" viewBox="0 0 24 24"><path d="M6 3h12a1 1 0 0 1 1 1v17l-7-4-7 4V4a1 1 0 0 1 1-1z" fill="none" stroke="currentColor" stroke-width="1.8" stroke-linejoin="round"/></symbol>
  <symbol id="i-play" viewBox="0 0 24 24"><path d="M8 5.5v13l11-6.5z" fill="currentColor"/></symbol>
  <symbol id="i-layers" viewBox="0 0 24 24"><path d="M12 3 3 8l9 5 9-5-9-5z" fill="none" stroke="currentColor" stroke-width="1.8" stroke-linejoin="round"/><path d="M3 12l9 5 9-5M3 16l9 5 9-5" fill="none" stroke="currentColor" stroke-width="1.8" stroke-linejoin="round" opacity="0.6"/></symbol>
  <symbol id="i-cpu" viewBox="0 0 24 24"><rect x="7" y="7" width="10" height="10" rx="1.5" fill="none" stroke="currentColor" stroke-width="1.8"/><rect x="11" y="11" width="2" height="2" fill="currentColor"/><path d="M9 3v4M15 3v4M9 17v4M15 17v4M3 9h4M3 15h4M17 9h4M17 15h4" fill="none" stroke="currentColor" stroke-width="1.8" stroke-linecap="round"/></symbol>
  <symbol id="i-database" viewBox="0 0 24 24"><ellipse cx="12" cy="5.5" rx="8" ry="3" fill="none" stroke="currentColor" stroke-width="1.8"/><path d="M4 5.5v13c0 1.7 3.6 3 8 3s8-1.3 8-3v-13" fill="none" stroke="currentColor" stroke-width="1.8"/><path d="M4 12c0 1.7 3.6 3 8 3s8-1.3 8-3" fill="none" stroke="currentColor" stroke-width="1.8"/></symbol>
  <symbol id="i-alert" viewBox="0 0 24 24"><path d="M12 3 2.5 20h19z" fill="none" stroke="currentColor" stroke-width="1.8" stroke-linejoin="round"/><path d="M12 9.5V14M12 17h.01" fill="none" stroke="currentColor" stroke-width="1.8" stroke-linecap="round"/></symbol>
  <symbol id="i-info" viewBox="0 0 24 24"><circle cx="12" cy="12" r="9" fill="none" stroke="currentColor" stroke-width="1.8"/><path d="M12 11v6M12 7.5h.01" fill="none" stroke="currentColor" stroke-width="1.8" stroke-linecap="round"/></symbol>
  <symbol id="i-grid" viewBox="0 0 24 24"><rect x="3.5" y="3.5" width="7" height="7" rx="1.5" fill="none" stroke="currentColor" stroke-width="1.8"/><rect x="13.5" y="3.5" width="7" height="7" rx="1.5" fill="none" stroke="currentColor" stroke-width="1.8"/><rect x="3.5" y="13.5" width="7" height="7" rx="1.5" fill="none" stroke="currentColor" stroke-width="1.8"/><rect x="13.5" y="13.5" width="7" height="7" rx="1.5" fill="none" stroke="currentColor" stroke-width="1.8"/></symbol>
  <symbol id="i-list" viewBox="0 0 24 24"><path d="M8 6h13M8 12h13M8 18h13M3.5 6h.01M3.5 12h.01M3.5 18h.01" fill="none" stroke="currentColor" stroke-width="1.8" stroke-linecap="round"/></symbol>
  <symbol id="i-eye" viewBox="0 0 24 24"><path d="M2 12s3.5-7 10-7 10 7 10 7-3.5 7-10 7-10-7-10-7z" fill="none" stroke="currentColor" stroke-width="1.8" stroke-linejoin="round"/><circle cx="12" cy="12" r="3" fill="none" stroke="currentColor" stroke-width="1.8"/></symbol>
  <symbol id="i-code" viewBox="0 0 24 24"><path d="M9 8 4 12l5 4M15 8l5 4-5 4" fill="none" stroke="currentColor" stroke-width="1.8" stroke-linecap="round" stroke-linejoin="round"/></symbol>
  <symbol id="i-palette" viewBox="0 0 24 24"><path d="M12 2a10 10 0 1 0 0 20c1.7 0 2.5-1.2 2.5-2.5 0-.9-.5-1.4-.9-1.8-.4-.4-.9-.9-.9-1.7 0-1.3 1-2.3 2.3-2.3h2.7C20.8 13.7 22 12.5 22 10.9 22 6 17.5 2 12 2z" fill="none" stroke="currentColor" stroke-width="1.8" stroke-linejoin="round"/><circle cx="7.5" cy="10" r="1.2" fill="currentColor"/><circle cx="10" cy="6.5" r="1.2" fill="currentColor"/><circle cx="15" cy="7" r="1.2" fill="currentColor"/></symbol>
  <symbol id="i-wrench" viewBox="0 0 24 24"><path d="M14.7 6.3a4 4 0 0 0 5.1 5.1L15 16.2a4.5 4.5 0 1 1-6.4-6.4l4.8-4.8a4 4 0 0 0 5.1 5.1z" fill="none" stroke="currentColor" stroke-width="1.8" stroke-linejoin="round"/></symbol>
  <symbol id="i-doc" viewBox="0 0 24 24"><path d="M14 3H7a2 2 0 0 0-2 2v14a2 2 0 0 0 2 2h10a2 2 0 0 0 2-2V8z" fill="none" stroke="currentColor" stroke-width="1.8" stroke-linejoin="round"/><path d="M14 3v5h5M9 13h6M9 17h6" fill="none" stroke="currentColor" stroke-width="1.8" stroke-linecap="round"/></symbol>
  <symbol id="i-node" viewBox="0 0 24 24"><circle cx="5" cy="12" r="2.5" fill="none" stroke="currentColor" stroke-width="1.8"/><circle cx="19" cy="5" r="2.5" fill="none" stroke="currentColor" stroke-width="1.8"/><circle cx="19" cy="19" r="2.5" fill="none" stroke="currentColor" stroke-width="1.8"/><path d="M7.3 10.7l9.4-4.4M7.3 13.3l9.4 4.4" fill="none" stroke="currentColor" stroke-width="1.8"/></symbol>
  <symbol id="i-refresh" viewBox="0 0 24 24"><path d="M20 11a8 8 0 1 0-2.3 6.1M20 4v7h-7" fill="none" stroke="currentColor" stroke-width="1.8" stroke-linecap="round" stroke-linejoin="round"/></symbol>
  <symbol id="i-history" viewBox="0 0 24 24"><path d="M3 12a9 9 0 1 0 3-6.7L3 8M3 3v5h5" fill="none" stroke="currentColor" stroke-width="1.8" stroke-linecap="round" stroke-linejoin="round"/><path d="M12 7.5V12l3 2" fill="none" stroke="currentColor" stroke-width="1.8" stroke-linecap="round" stroke-linejoin="round"/></symbol>
  <symbol id="i-compare" viewBox="0 0 24 24"><path d="M4 4v16M20 4v16M4 4l6 6M4 16l6-6M20 10l-6 6M20 16l-6-6" fill="none" stroke="currentColor" stroke-width="1.8" stroke-linecap="round"/></symbol>
  <symbol id="i-home" viewBox="0 0 24 24"><path d="M3 11.5 12 4l9 7.5M5.5 10v9.5h13V10" fill="none" stroke="currentColor" stroke-width="1.8" stroke-linecap="round" stroke-linejoin="round"/></symbol>
  <symbol id="i-category" viewBox="0 0 24 24"><path d="M4 4h7v7H4zM13 4h7v7h-7zM4 13h7v7H4zM13 13h7v7h-7z" fill="none" stroke="currentColor" stroke-width="1.8" stroke-linejoin="round"/></symbol>
  <symbol id="i-gear" viewBox="0 0 24 24"><circle cx="12" cy="12" r="3.2" fill="none" stroke="currentColor" stroke-width="1.8"/><path d="M12 2.5l1 2.6a7.5 7.5 0 0 1 2.5 1.4l2.7-.6 1.7 2.3-1.9 2a7.5 7.5 0 0 1 0 2.8l1.9 2-1.7 2.3-2.7-.6a7.5 7.5 0 0 1-2.5 1.4l-1 2.6h-2l-1-2.6a7.5 7.5 0 0 1-2.5-1.4l-2.7.6-1.7-2.3 1.9-2a7.5 7.5 0 0 1 0-2.8l-1.9-2 1.7-2.3 2.7.6A7.5 7.5 0 0 1 9 5.1l1-2.6z" fill="none" stroke="currentColor" stroke-width="1.5" stroke-linejoin="round"/></symbol>
  <symbol id="i-calendar" viewBox="0 0 24 24"><rect x="3" y="5" width="18" height="16" rx="2" fill="none" stroke="currentColor" stroke-width="1.8"/><path d="M3 10h18M8 3v4M16 3v4" fill="none" stroke="currentColor" stroke-width="1.8" stroke-linecap="round"/></symbol>
  <symbol id="i-user" viewBox="0 0 24 24"><circle cx="12" cy="8" r="4" fill="none" stroke="currentColor" stroke-width="1.8"/><path d="M4 21c0-4.4 3.6-7 8-7s8 2.6 8 7" fill="none" stroke="currentColor" stroke-width="1.8" stroke-linecap="round"/></symbol>
  <symbol id="i-plus" viewBox="0 0 24 24"><path d="M12 5v14M5 12h14" fill="none" stroke="currentColor" stroke-width="1.8" stroke-linecap="round"/></symbol>
  <symbol id="i-minus" viewBox="0 0 24 24"><path d="M5 12h14" fill="none" stroke="currentColor" stroke-width="1.8" stroke-linecap="round"/></symbol>
  <symbol id="i-sparkles" viewBox="0 0 24 24"><path d="M12 4l1.7 4.3L18 10l-4.3 1.7L12 16l-1.7-4.3L6 10l4.3-1.7zM19 15l.9 2.1L22 18l-2.1.9L19 21l-.9-2.1L16 18l2.1-.9zM5 3l.7 1.8L7.5 5.5 5.7 6.2 5 8l-.7-1.8L2.5 5.5 4.3 4.8z" fill="currentColor"/></symbol>
  <symbol id="i-trending" viewBox="0 0 24 24"><path d="M3 17l6-6 4 4 8-8M14 7h7v7" fill="none" stroke="currentColor" stroke-width="1.8" stroke-linecap="round" stroke-linejoin="round"/></symbol>
  <symbol id="i-folder" viewBox="0 0 24 24"><path d="M3 6a2 2 0 0 1 2-2h4l2 2h8a2 2 0 0 1 2 2v10a2 2 0 0 1-2 2H5a2 2 0 0 1-2-2z" fill="none" stroke="currentColor" stroke-width="1.8" stroke-linejoin="round"/></symbol>
  <symbol id="i-trash" viewBox="0 0 24 24"><path d="M4 7h16M9 7V4h6v3M6 7l1 13h10l1-13M10 11v6M14 11v6" fill="none" stroke="currentColor" stroke-width="1.8" stroke-linecap="round" stroke-linejoin="round"/></symbol>
  <symbol id="i-image" viewBox="0 0 24 24"><rect x="3" y="4" width="18" height="16" rx="2" fill="none" stroke="currentColor" stroke-width="1.8"/><circle cx="8.5" cy="9.5" r="1.5" fill="currentColor"/><path d="M21 16l-5-5-9 9" fill="none" stroke="currentColor" stroke-width="1.8" stroke-linejoin="round"/></symbol>
  <symbol id="i-file-json" viewBox="0 0 24 24"><path d="M14 3H7a2 2 0 0 0-2 2v14a2 2 0 0 0 2 2h10a2 2 0 0 0 2-2V8z" fill="none" stroke="currentColor" stroke-width="1.8" stroke-linejoin="round"/><path d="M14 3v5h5" fill="none" stroke="currentColor" stroke-width="1.8"/><path d="M9.5 14v-3l2.5 3v-3M15 13h.01M14.5 11.5v3" fill="none" stroke="currentColor" stroke-width="1.8" stroke-linecap="round"/></symbol>
</svg>
